<svg id="Capa_1" data-name="Capa 1" xmlns="http://www.w3.org/2000/svg" viewBox="0 0 190.78 39.7"><defs><style>.cls-1{fill:#fff;}</style></defs><path class="cls-1" d="M17.68,39.1a16.92,16.92,0,0,1-12.1-4.5A15.24,15.24,0,0,1,.81,23,14.75,14.75,0,0,1,5.67,11.66,17.67,17.67,0,0,1,18.09,7.2a18.4,18.4,0,0,1,6.77,1.4,20.08,20.08,0,0,1,6.67,4.52L25.44,20Q22,16,18.22,16A6,6,0,0,0,13.35,18a7.33,7.33,0,0,0-1.73,4.87,7.47,7.47,0,0,0,1.73,4.91,6,6,0,0,0,4.87,2.1c2.43,0,4.83-1.13,7.22-3.38l6.09,6.13a20.75,20.75,0,0,1-6.17,4.67A17,17,0,0,1,17.68,39.1Z"/><path class="cls-1" d="M63.71,39.08H53.17V27.59H43.3V39.08H32.76V7.22H43.3V19.58h9.87V7.22H63.71Z"/><path class="cls-1" d="M77.89,39.08H67.35V7.22H77.89Z"/><path class="cls-1" d="M119.67,39.08h-9.24V21.63L104,36H97.16L90.75,21.63V39.08H81.53V7.22H92.7l7.92,16.64,7.85-16.64h11.2Z"/><path class="cls-1" d="M140.19,39.08h-16.9V7.22h16.13a18.12,18.12,0,0,1,8.81,1.89,6.84,6.84,0,0,1,2.52,10.15,8.25,8.25,0,0,1-4.07,2.82A10.12,10.12,0,0,1,150.31,24a7.46,7.46,0,0,1,2.05,2.79,8.84,8.84,0,0,1,.64,3.38,7.34,7.34,0,0,1-1.7,5,10.49,10.49,0,0,1-4.75,3A20.58,20.58,0,0,1,140.19,39.08Zm-1.36-19.59a2.2,2.2,0,0,0,2.41-2.32c0-1.34-.8-2.08-2.41-2.23h-5.05v4.55Zm0,11.85a3.59,3.59,0,0,0,2.34-.71,2.28,2.28,0,0,0,.89-1.87c0-1.43-1.08-2.15-3.23-2.15h-5.05v4.73Z"/><path class="cls-1" d="M189.78,39.08H178.54L177,34.58H165l-1.64,4.5H152.55L166,7.22h10.83ZM174.37,27l-3.28-9.33L167.73,27Z"/><rect class="cls-1" x="13.15" y="0.58" width="6.24" height="11.56"/></svg>